<svg width="16" height="16" viewBox="0 0 16 16" fill="none" xmlns="http://www.w3.org/2000/svg">
<rect x="0.5" y="0.5" width="15" height="15" rx="1.5" fill="#1890FF" stroke="#1890FF"/>
<path d="M12.4688 3.84961C12.6699 3.84961 12.789 4.0837 12.6602 4.24414L12.6592 4.24316L6.9375 11.4961H6.93652C6.75188 11.7279 6.42015 11.7576 6.19922 11.583L6.1123 11.4961L2.90234 7.42969C2.77666 7.27029 2.89024 7.0353 3.09375 7.03516H3.91309L4.03027 7.04883C4.06878 7.05769 4.10681 7.07051 4.14258 7.08789C4.21376 7.12255 4.2762 7.17315 4.3252 7.23535L6.52344 10.0215L11.2383 4.0498C11.3373 3.92341 11.4895 3.84973 11.6494 3.84961H12.4688Z" fill="white" stroke="white" stroke-width="0.3"/>
</svg>
